<svg height="24" viewBox="0 0 24 24" width="24" xmlns="http://www.w3.org/2000/svg"><path d="m20.895 7.553-2-4c-.17-.339-.516-.553-.895-.553h-5c-.379 0-.725.214-.895.553l-1.723 3.447h-4.382c-.379 0-.725.214-.895.553l-2 4c-.141.281-.141.613 0 .895l2 4c.17.338.516.552.895.552h4.382l1.724 3.447c.169.339.515.553.894.553h5c.379 0 .725-.214.895-.553l2-4c.141-.281.141-.613 0-.895l-1.777-3.552 1.776-3.553c.141-.281.141-.613.001-.894zm-7.277-2.553h3.764l1.5 3-1.5 3h-3.764l-1.5-3zm-8.5 7 1.5-3h3.764l1.5 3-1.5 3h-3.764zm12.264 7h-3.764l-1.5-3 1.5-3h3.764l1.5 3z"/></svg>